<svg width="102" height="18" viewBox="0 0 102 18" fill="none" xmlns="http://www.w3.org/2000/svg">
<path d="M0 16.0442L0.81 3.37215L1.674 2.59815H10.548L11.412 3.35415L12.042 9.67215L11.232 10.6262L3.042 11.1482L2.934 9.45615L10.26 8.98815L9.792 4.27215H2.448L1.692 16.1522L0 16.0442Z" fill="black"/>
<path d="M14.3422 14.7662L13.6582 13.8122L14.5222 7.40415L15.2782 6.68415L20.5522 6.25215L21.3802 6.70215L22.9102 9.72615L22.3162 10.9322L16.7182 12.1022L16.3582 10.4642L20.8762 9.49215L20.1202 7.99815L16.0882 8.30415L15.4402 13.2542L21.6322 14.4062L21.3082 16.0622L14.3422 14.7662Z" fill="black"/>
<path d="M28.6381 13.6322L32.1661 14.6402L31.7161 16.2602L27.4861 15.0722L26.8741 14.1722L27.3241 9.33015L23.7781 9.58215L23.6341 7.87215L27.4861 7.60215L27.6661 5.71215L29.3581 5.87415L29.2141 7.49415L33.2641 7.20615L33.3721 8.88015L29.0521 9.20415L28.6381 13.6322Z" fill="black"/>
<path d="M41.3027 15.2702L38.4947 4.02015L40.1327 3.60615L42.2387 11.9402L44.6687 4.21815H46.2887L48.4847 11.3282L51.4187 3.42615L53.0027 4.02015L49.2047 14.2622L47.6027 14.2082L45.4787 7.33215L42.9587 15.3062L41.3027 15.2702Z" fill="black"/>
<path d="M80.2659 6.27015L81.9579 6.21615L82.0119 8.43015L86.1159 6.48615L86.8359 8.05215L82.0659 10.2842L82.2459 15.7202L80.5359 15.7562L80.2659 6.27015Z" fill="black"/>
<path d="M87.3809 15.7742L88.9289 4.90215L90.6029 5.11815L89.0729 16.0082L87.3809 15.7742Z" fill="black"/>
<path d="M91.8633 14.7302L92.6913 8.52015L93.6633 7.80015L98.9553 8.64615L98.6673 4.61415L100.377 4.50615L101.007 13.9742L100.251 14.8742L92.7813 15.6842L91.8633 14.7302ZM93.6813 13.8842L99.2613 13.2902L99.0633 10.3742L94.2573 9.60015L93.6813 13.8842Z" fill="black"/>
<path d="M60.1 13.8462C60.4684 12.6923 61.2579 10.3846 63.1 5.76923L68.6263 6.15385L70.8368 9.61539L70.6 16.3462L63.6 17.8462L60.1 13.8462Z" fill="black"/>
<path d="M61.2579 4.61538V1.53846L63.1 0L65.3105 0.384615L66.4158 2.30769L64.9421 4.61538H61.2579Z" fill="black"/>
<path d="M70.1 6.15385L67.8368 3.34616L70.7842 1.03846L73.7316 2.96154L73.0474 5.38462L70.1 6.15385Z" fill="black"/>
<path d="M56.1 8.84615V6.53846L59.4158 5L60.8895 6.92308L59.4158 10.3846H57.5737L56.1 8.84615Z" fill="black"/>
<path d="M72.7842 10.6923L71.3105 7.61539L73.521 6.46154L76.1 6.84615L76.6 8.84616L75.3632 11.0769L72.7842 10.6923Z" fill="black"/>
</svg>
